<svg xmlns="http://www.w3.org/2000/svg" viewBox="-22 -732 793 793"><path d="M375 -732C443 -732 506 -714 563 -680C620 -646 665 -600 699 -544C733 -486 750 -424 750 -356V-64C750 -30 738 0 714 24C690 50 660 62 625 62H500V-272H666V-356C666 -408 653 -456 627 -502C601 -546 565 -582 521 -608C477 -634 428 -648 375 -648C322 -648 273 -634 229 -608C185 -582 149 -546 123 -502C97 -456 84 -408 84 -356V-272H250V62H125C90 62 60 50 36 24C12 0 0 -30 0 -64V-356C0 -424 17 -486 50 -544C83 -600 129 -646 187 -680C245 -714 307 -732 375 -732Z"/></svg>
