<svg xmlns="http://www.w3.org/2000/svg" viewBox="0 -669 668 668"><path d="M570 -571 668 -669V-376H375L510 -511C487 -534 460 -553 430 -566C400 -579 368 -585 334 -585C289 -585 247 -574 208 -552C169 -530 139 -500 117 -461C95 -422 84 -380 84 -335C84 -290 95 -248 117 -209C139 -170 169 -140 208 -118C247 -96 289 -85 334 -85C387 -85 435 -101 478 -132C521 -163 552 -203 570 -251H656C637 -178 597 -119 538 -72C479 -25 411 -1 334 -1C274 -1 218 -16 167 -46C116 -76 75 -117 45 -168C15 -219 0 -275 0 -335C0 -395 15 -451 45 -502C75 -553 116 -594 167 -624C218 -654 274 -669 334 -669C379 -669 422 -660 462 -642C502 -624 539 -601 570 -571Z"/></svg>
