<svg xmlns="http://www.w3.org/2000/svg" viewBox="0 -751 832 832"><path d="M41 -335C29 -335 20 -332 12 -324C4 -316 0 -306 0 -294C0 -282 4 -272 12 -264C20 -256 29 -251 41 -251H791C803 -251 812 -256 820 -264C828 -272 832 -282 832 -294C832 -306 828 -316 820 -324C812 -332 803 -335 791 -335H625C625 -373 615 -408 596 -440C577 -472 552 -497 520 -516C488 -535 454 -544 416 -544C378 -544 344 -535 312 -516C280 -497 255 -472 236 -440C217 -408 207 -373 207 -335ZM125 -169C113 -169 102 -164 94 -156C86 -148 82 -138 82 -126C82 -114 86 -104 94 -96C102 -88 113 -85 125 -85H707C719 -85 730 -88 738 -96C746 -104 750 -114 750 -126C750 -138 746 -148 738 -156C730 -164 719 -169 707 -169ZM625 -1H207C195 -1 186 2 178 10C170 18 166 28 166 40C166 52 170 62 178 70C186 78 195 81 207 81H625C637 81 646 78 654 70C662 62 666 52 666 40C666 28 662 18 654 10C646 2 637 -1 625 -1ZM541 -335H291C291 -370 303 -400 327 -424C351 -448 381 -460 416 -460C451 -460 481 -448 505 -424C529 -400 541 -370 541 -335ZM416 -751 316 -608C349 -620 382 -626 416 -626C450 -626 483 -620 516 -608ZM55 -544 129 -386C136 -421 147 -453 164 -482C181 -511 202 -536 228 -558C112 -549 54 -544 55 -544ZM777 -544 604 -558C631 -537 652 -512 668 -482C685 -452 696 -420 703 -386Z"/></svg>
