<svg xmlns="http://www.w3.org/2000/svg" viewBox="-116 -751 832 832"><path d="M259 -751H341C353 -751 364 -748 372 -740C380 -732 384 -722 384 -710V-626C429 -626 468 -610 501 -578C534 -546 550 -507 550 -460V-398C521 -398 496 -388 476 -368C456 -348 446 -323 446 -294C446 -265 456 -241 476 -220C496 -199 521 -189 550 -189V-126C550 -88 541 -54 522 -22C503 10 478 36 446 54C414 72 379 81 341 81H259C221 81 186 72 154 54C122 36 97 10 78 -22C59 -54 50 -88 50 -126V-189C79 -189 104 -199 124 -220C144 -241 154 -265 154 -294C154 -323 144 -348 124 -368C104 -388 79 -398 50 -398V-460C50 -499 62 -533 85 -562C108 -591 138 -611 175 -620V-460C175 -445 182 -431 195 -418C208 -405 223 -398 238 -398H300C305 -398 310 -400 314 -404C318 -408 321 -412 321 -418C321 -424 318 -429 314 -433C310 -437 305 -439 300 -439H238C233 -439 228 -442 223 -446C218 -450 216 -455 216 -460V-710C216 -722 220 -732 228 -740C236 -748 247 -751 259 -751ZM247 -148 269 -1H331L353 -148Z"/></svg>
