<svg xmlns="http://www.w3.org/2000/svg" viewBox="0 -730 791 791"><path d="M143 -482C131 -470 125 -456 125 -438C125 -422 131 -406 143 -394C164 -374 176 -348 180 -314C184 -282 197 -254 219 -230C240 -212 264 -198 291 -192C318 -186 346 -188 372 -200C398 -210 419 -228 436 -254C450 -276 458 -302 458 -328C458 -356 451 -382 437 -404C424 -422 408 -436 390 -448C372 -458 353 -466 332 -468C299 -472 273 -482 254 -502V-504C241 -516 225 -522 208 -522C191 -524 176 -516 164 -504ZM318 -148C348 -148 376 -156 404 -170C432 -184 454 -204 471 -230C489 -260 498 -292 499 -328C500 -364 491 -396 473 -426C542 -404 598 -364 642 -304C686 -246 707 -180 707 -106V-64H168C142 -84 122 -108 106 -138C90 -166 82 -198 82 -230C82 -276 96 -316 123 -354C131 -340 136 -326 137 -308C142 -268 159 -232 189 -202C224 -166 267 -148 318 -148ZM531 -500C500 -500 473 -512 450 -534C427 -556 416 -582 416 -616C416 -648 427 -676 450 -698C473 -720 500 -730 531 -730V-680C514 -680 499 -674 486 -662C473 -650 467 -636 467 -618C467 -600 473 -584 486 -570C499 -556 514 -548 531 -548H584C618 -548 647 -538 670 -518C693 -496 705 -470 705 -440V-398H652V-428C652 -450 645 -468 632 -480C619 -494 603 -500 584 -500ZM104 -500 43 -558C38 -556 32 -554 26 -556C20 -556 13 -560 8 -566C3 -572 0 -580 0 -588C0 -596 2 -602 8 -608C14 -614 21 -618 29 -620C29 -626 32 -634 38 -640C44 -646 51 -648 60 -648C69 -648 77 -646 82 -640C87 -634 90 -628 91 -622C92 -616 91 -608 88 -604L146 -544C141 -540 138 -536 135 -534L113 -512C110 -508 107 -504 104 -500ZM682 -630C715 -616 741 -592 761 -562C781 -530 791 -496 791 -458V-356H740V-458C740 -496 727 -530 700 -556C673 -584 640 -598 602 -598V-650C619 -650 634 -658 646 -670C658 -682 664 -696 664 -712H717C717 -682 705 -654 682 -630ZM125 60C102 60 82 52 66 36C50 20 41 0 41 -24H791C791 0 782 20 766 36C750 52 730 60 707 60Z"/></svg>
